<svg width="280" height="280" viewBox="0 0 280 280" fill="none" xmlns="http://www.w3.org/2000/svg">
<rect width="280" height="280" rx="80" fill="#232946"/>
<g filter="url(#filter0_d_149_225)">
<path d="M61.185 98.0694C66.3512 87.0934 81.2301 85.3246 88.8256 94.7835V94.7835C92.2429 99.0392 97.5526 101.317 102.991 100.861V100.861C115.08 99.8469 124.051 111.848 119.657 123.155V123.155C117.681 128.243 118.363 133.98 121.477 138.462V138.462C128.4 148.424 122.492 162.194 110.503 164.043V164.043C105.108 164.874 100.481 168.334 98.1564 173.272V173.272C92.9903 184.248 78.1113 186.017 70.5158 176.558V176.558C67.0985 172.302 61.7888 170.024 56.35 170.48V170.48C44.2614 171.494 35.29 159.493 39.684 148.186V148.186C41.6608 143.099 40.9788 137.361 37.8643 132.879V132.879C30.9418 122.917 36.8494 109.147 48.8389 107.299V107.299C54.2331 106.467 58.8607 103.008 61.185 98.0694V98.0694Z" fill="#FFFFFE"/>
<path d="M161.23 59.9031C165.146 58.9083 169.275 60.3673 171.697 63.6009L183.617 79.5181C184.176 80.2643 184.836 80.9286 185.579 81.4919L201.424 93.5075C204.643 95.9485 206.078 100.087 205.059 103.996L200.047 123.24C199.812 124.142 199.704 125.073 199.727 126.005L200.212 145.884C200.311 149.923 197.969 153.624 194.278 155.266L176.107 163.345C175.255 163.724 174.461 164.22 173.746 164.819L158.506 177.593C155.41 180.188 151.056 180.665 147.472 178.803L129.826 169.634C128.999 169.204 128.115 168.892 127.202 168.707L107.712 164.756C103.753 163.953 100.665 160.847 99.8865 156.883L96.053 137.37C95.8733 136.456 95.5666 135.57 95.1418 134.741L86.0791 117.04C84.238 113.444 84.7414 109.093 87.3551 106.013L100.221 90.8497C100.824 90.1389 101.325 89.3472 101.708 88.4977L109.897 70.3761C111.56 66.6945 115.276 64.3756 119.314 64.4984L139.19 65.1031C140.122 65.1314 141.053 65.0294 141.957 64.7998L161.23 59.9031Z" fill="#FFFFFE"/>
<path fill-rule="evenodd" clip-rule="evenodd" d="M30.7393 151C27.9779 151 25.7094 153.249 26.0305 155.992C30.2193 191.769 79.0802 220 138.739 220C198.399 220 247.259 191.769 251.448 155.992C251.769 153.249 249.501 151 246.739 151H30.7393Z" fill="#EEBBC3"/>
<path d="M82.8629 114.309C81.9847 107.974 88.6318 103.294 94.3003 106.256V106.256C97.7065 108.036 101.9 107.095 104.219 104.03V104.03C108.078 98.9293 116.087 100.32 118.001 106.423V106.423C119.151 110.091 122.782 112.39 126.589 111.863V111.863C132.924 110.985 137.604 117.632 134.642 123.3V123.3C132.861 126.706 133.803 130.9 136.868 133.219V133.219C141.968 137.078 140.578 145.087 134.474 147.001V147.001C130.807 148.151 128.507 151.782 129.035 155.588V155.588C129.913 161.924 123.266 166.604 117.598 163.641V163.641C114.191 161.861 109.998 162.803 107.679 165.868V165.868C103.82 170.968 95.8103 169.578 93.8969 163.474V163.474C92.7472 159.807 89.1162 157.507 85.3093 158.035V158.035C78.9738 158.913 74.2937 152.266 77.2563 146.597V146.597C79.0365 143.191 78.0952 138.997 75.0302 136.679V136.679C69.9294 132.82 71.3202 124.81 77.4233 122.897V122.897C81.0906 121.747 83.3906 118.116 82.8629 114.309V114.309Z" fill="#FFFFFE"/>
<path d="M196.931 116.884C200.461 106.954 212.922 103.65 220.909 110.526V110.526C223.524 112.777 226.858 114.067 230.307 114.162V114.162C240.842 114.451 247.835 125.281 243.764 135.002V135.002C242.431 138.184 242.235 141.754 243.21 145.063V145.063C246.191 155.172 238.052 165.17 227.548 164.301V164.301C224.11 164.017 220.654 164.934 217.809 166.884V166.884C209.115 172.842 197.092 168.191 194.672 157.934V157.934C193.88 154.576 191.941 151.572 189.206 149.469V149.469C180.853 143.042 181.561 130.17 190.569 124.699V124.699C193.518 122.907 195.775 120.135 196.931 116.884V116.884Z" fill="#FFFFFE"/>
<path d="M76.8329 144.952L72.4957 136.073L59.3882 138.213L58.0999 148.011L49.4366 149.425L55.9652 108.046L66.5412 106.32L85.7213 143.501L76.8329 144.952ZM62.408 114.965L62.1267 115.011L60.2287 130.625L69.2296 129.156L62.408 114.965Z" fill="#B8C1EC"/>
<path d="M93.6156 139.704L88.6972 137.428C88.9812 135.349 89.5974 133.494 90.5458 131.863C91.5322 130.233 92.7733 128.863 94.2689 127.751C95.8025 126.641 97.5708 125.808 99.5739 125.252C101.577 124.695 103.755 124.47 106.109 124.576C108.538 124.686 110.707 125.107 112.614 125.84C114.56 126.536 116.19 127.504 117.504 128.742C118.819 129.943 119.8 131.394 120.446 133.097C121.093 134.762 121.372 136.6 121.281 138.612L120.428 157.517L112.001 157.137L112.805 139.314C112.858 138.137 112.736 137.048 112.439 136.045C112.181 135.007 111.728 134.092 111.079 133.302C110.468 132.514 109.659 131.888 108.653 131.424C107.687 130.924 106.52 130.643 105.153 130.582C103.217 130.494 101.489 130.854 99.9695 131.66C98.4497 132.466 97.3379 133.5 96.6344 134.762L98.7053 135.654C100.048 136.247 100.951 136.897 101.413 137.602C101.876 138.308 102.076 139.344 102.015 140.71L101.296 156.654L92.8682 156.274L93.6156 139.704Z" fill="#B8C1EC"/>
<path d="M114.929 71.5359L133.622 76.4322C136.82 77.2699 139.065 78.8205 140.358 81.0839C141.687 83.357 141.962 85.9823 141.182 88.9598C140.797 90.4302 140.267 91.6271 139.593 92.5505C138.956 93.4834 138.22 94.1941 137.385 94.6825C136.587 95.1804 135.703 95.4793 134.734 95.5791C133.812 95.6517 132.849 95.5764 131.847 95.3531L131.761 95.684C132.68 95.9247 133.592 96.3405 134.498 96.9313C135.44 97.5317 136.238 98.3103 136.891 99.267C137.554 100.187 138.011 101.289 138.264 102.573C138.554 103.866 138.482 105.34 138.049 106.995C137.654 108.502 137.021 109.868 136.15 111.093C135.326 112.291 134.342 113.271 133.2 114.033C132.058 114.794 130.803 115.31 129.436 115.58C128.079 115.814 126.683 115.743 125.249 115.367L104.848 110.023L114.929 71.5359ZM115.078 105.161L124.727 107.689C125.83 107.977 126.771 107.91 127.55 107.485C128.375 107.034 128.932 106.256 129.221 105.154L129.712 103.279C130.001 102.176 129.892 101.244 129.384 100.482C128.923 99.6938 128.141 99.155 127.038 98.8662L117.389 96.3386L115.078 105.161ZM119.18 89.5012L127.506 91.6822C128.609 91.9711 129.554 91.8849 130.343 91.4237C131.131 90.9625 131.67 90.1804 131.959 89.0777L132.392 87.4235C132.681 86.3207 132.595 85.375 132.134 84.5864C131.673 83.7977 130.891 83.259 129.788 82.9701L121.462 80.7892L119.18 89.5012Z" fill="#B8C1EC"/>
<path d="M155.208 147.393C151.253 148.337 147.94 148.288 145.269 147.246C142.589 146.167 140.922 144.26 140.269 141.525C140.084 140.749 139.985 140.011 139.974 139.31C139.992 138.564 140.105 137.814 140.316 137.06C140.527 136.306 140.826 135.512 141.212 134.678C141.636 133.834 142.162 132.927 142.789 131.957C143.24 131.224 143.629 130.565 143.958 129.978C144.287 129.392 144.527 128.846 144.68 128.341C144.861 127.79 144.968 127.256 145.001 126.74C145.034 126.225 144.976 125.653 144.826 125.024C144.543 123.842 143.867 122.89 142.796 122.169C141.762 121.439 140.321 121.295 138.473 121.736C137.808 121.895 137.248 122.087 136.794 122.313L136.916 122.577L137.47 122.444C138.69 122.153 139.795 122.28 140.784 122.825C141.811 123.361 142.492 124.331 142.827 125.736C143.198 127.288 142.967 128.691 142.133 129.945C141.337 131.19 140.107 132.012 138.444 132.409C136.78 132.806 135.266 132.601 133.902 131.794C132.537 130.987 131.629 129.641 131.179 127.756C130.605 125.353 131.011 123.206 132.395 121.312C133.816 119.41 136.042 118.097 139.072 117.373C142.214 116.623 144.881 116.748 147.073 117.748C149.266 118.748 150.679 120.579 151.315 123.24C151.624 124.534 151.707 125.862 151.563 127.225C151.42 128.587 150.887 130.121 149.966 131.825C149.045 133.53 148.455 134.823 148.197 135.705C147.976 136.579 147.94 137.329 148.09 137.958L148.209 138.457C148.465 139.529 149.051 140.346 149.967 140.909C150.911 141.425 152.159 141.499 153.711 141.128C155.264 140.757 156.392 139.999 157.095 138.855C157.826 137.664 158.024 136.367 157.689 134.962L152.87 114.782L161.075 112.822L165.881 132.947C166.305 134.721 166.352 136.39 166.022 137.954C165.72 139.471 165.097 140.87 164.153 142.151C163.199 143.394 161.953 144.473 160.413 145.388C158.902 146.256 157.166 146.925 155.208 147.393ZM137.636 129.027C138.301 128.868 138.789 128.537 139.098 128.033C139.444 127.521 139.529 126.895 139.353 126.155C139.176 125.416 138.818 124.896 138.277 124.596C137.774 124.286 137.189 124.211 136.524 124.37C135.858 124.529 135.353 124.864 135.006 125.377C134.697 125.881 134.63 126.502 134.807 127.241C134.983 127.98 135.323 128.505 135.827 128.814C136.368 129.115 136.971 129.186 137.636 129.027Z" fill="#B8C1EC"/>
<path d="M184.928 123.988C182.304 124.615 179.841 124.773 177.541 124.463C175.231 124.116 173.142 123.306 171.276 122.033C169.4 120.723 167.764 118.945 166.369 116.7C164.964 114.418 163.869 111.632 163.084 108.342C162.307 105.09 162.025 102.11 162.238 99.4024C162.442 96.6579 163.08 94.2591 164.153 92.2058C165.216 90.1156 166.695 88.3754 168.59 86.9852C170.485 85.5951 172.745 84.5866 175.369 83.9599C178.954 83.1038 182.088 83.1368 184.769 84.0592C187.442 84.9446 189.856 86.7904 192.01 89.5966L185.648 95.1011C184.742 93.5984 183.62 92.4989 182.282 91.8027C180.972 91.0608 179.263 90.9414 177.156 91.4445C174.68 92.0359 172.878 93.3256 171.751 95.3138C170.652 97.2562 170.469 99.7612 171.202 102.829L172.685 109.038C173.417 112.106 174.717 114.277 176.584 115.55C178.479 116.777 180.664 117.095 183.141 116.504C185.211 116.01 186.723 115.062 187.678 113.662C188.661 112.216 189.258 110.628 189.47 108.898L197.298 111.248C196.563 114.549 195.207 117.295 193.229 119.486C191.281 121.631 188.513 123.132 184.928 123.988Z" fill="#B8C1EC"/>
<path d="M199.336 129.939C199.882 127.961 200.743 126.268 201.921 124.858C203.098 123.448 204.521 122.363 206.19 121.601C207.906 120.813 209.82 120.376 211.933 120.289C214.083 120.212 216.367 120.507 218.785 121.175C221.202 121.842 223.296 122.755 225.065 123.913C226.872 125.082 228.291 126.439 229.322 127.986C230.401 129.505 231.084 131.172 231.372 132.986C231.66 134.8 231.531 136.696 230.985 138.674L226.026 156.641L217.894 154.397L222.701 136.979C223.358 134.598 223.186 132.58 222.184 130.924C221.193 129.231 219.489 128.051 217.071 127.384C214.653 126.716 212.585 126.855 210.866 127.8C209.156 128.708 207.973 130.352 207.316 132.733L205.982 137.568L206.256 137.644C207.271 136.111 208.594 134.958 210.226 134.187C211.858 133.415 213.572 133.277 215.367 133.772C217.125 134.258 218.43 135.17 219.283 136.509C220.135 137.848 220.309 139.433 219.803 141.265C219.298 143.096 218.336 144.368 216.917 145.08C215.499 145.793 213.91 145.906 212.152 145.421C210.76 145.037 209.681 144.305 208.914 143.226C208.148 142.148 207.813 140.932 207.91 139.579L207.816 139.494C206.667 140.083 205.785 140.924 205.168 142.015C204.588 143.117 204.106 144.363 203.722 145.755L202.509 150.151L194.377 147.907L199.336 129.939ZM213.037 141.999C213.697 142.181 214.288 142.108 214.813 141.78C215.337 141.451 215.7 140.921 215.902 140.188C216.105 139.456 216.065 138.814 215.783 138.263C215.502 137.712 215.031 137.346 214.372 137.164C213.712 136.982 213.121 137.055 212.596 137.384C212.072 137.712 211.709 138.242 211.507 138.975C211.304 139.708 211.344 140.349 211.626 140.9C211.907 141.451 212.378 141.817 213.037 141.999Z" fill="#B8C1EC"/>
<path fill-rule="evenodd" clip-rule="evenodd" d="M89.0426 189.794C73.617 184.207 60.224 179.356 44.2877 160.559C43.2163 159.295 41.3232 159.14 40.0594 160.211C38.7956 161.283 38.6397 163.176 39.7112 164.439C56.7283 184.511 71.5562 189.866 87.1475 195.497L87.1479 195.497L87.1488 195.498C88.7189 196.065 90.2968 196.635 91.8853 197.222C91.9678 197.253 92.0256 197.327 92.0437 197.413V197.413C92.654 200.312 94.0191 202.589 95.8349 204.391C95.8584 204.415 95.8824 204.439 95.9068 204.462C97.599 206.119 99.6742 207.371 101.891 208.335C106.476 210.328 111.982 211.233 116.689 211.976C117.78 212.148 118.804 211.404 118.976 210.313C119.149 209.222 118.404 208.197 117.313 208.025C112.52 207.268 107.526 206.423 103.486 204.666C101.984 204.013 100.66 203.255 99.5497 202.357C99.2711 202.131 99.2171 201.733 99.452 201.462V201.462C99.8894 200.958 100.456 200.448 101.113 199.886C101.352 199.681 101.675 199.601 101.98 199.681C103.071 199.97 104.2 200.393 105.408 200.905C106.115 201.204 106.855 201.539 107.628 201.888C110.639 203.25 114.154 204.839 118.189 205.476C119.28 205.648 120.304 204.904 120.476 203.813C120.649 202.722 119.904 201.697 118.813 201.525C115.364 200.981 112.479 199.681 109.522 198.349C108.682 197.97 107.835 197.589 106.969 197.222C106.695 197.106 106.42 196.992 106.144 196.881C105.51 196.626 105.293 195.832 105.58 195.212C105.648 195.066 105.708 194.915 105.76 194.76V194.76C105.946 194.205 106.475 193.759 107.044 193.9C107.3 193.963 107.557 194.032 107.816 194.108C109.527 194.607 111.209 195.325 113.031 196.102C113.453 196.282 113.881 196.465 114.32 196.649C116.585 197.601 119.057 198.56 121.689 198.976C122.78 199.148 123.804 198.404 123.976 197.312C124.149 196.221 123.404 195.197 122.313 195.025C120.195 194.691 118.104 193.9 115.869 192.961C115.482 192.799 115.087 192.63 114.687 192.459C112.854 191.676 110.9 190.841 108.936 190.268C106.686 189.612 104.278 189.249 101.723 189.649C101.7 189.652 101.676 189.656 101.653 189.66C101.457 189.692 101.261 189.728 101.064 189.769C99.3637 190.121 97.6702 190.808 95.9691 191.894C95.695 192.069 95.3548 192.111 95.0503 191.997C93.0084 191.23 91.009 190.506 89.0427 189.794L89.0426 189.794Z" fill="#FFFFFE"/>
</g>
<defs>
<filter id="filter0_d_149_225" x="22.0001" y="59.5947" width="233.478" height="168.405" filterUnits="userSpaceOnUse" color-interpolation-filters="sRGB">
<feFlood flood-opacity="0" result="BackgroundImageFix"/>
<feColorMatrix in="SourceAlpha" type="matrix" values="0 0 0 0 0 0 0 0 0 0 0 0 0 0 0 0 0 0 127 0" result="hardAlpha"/>
<feOffset dy="4"/>
<feGaussianBlur stdDeviation="2"/>
<feComposite in2="hardAlpha" operator="out"/>
<feColorMatrix type="matrix" values="0 0 0 0 0 0 0 0 0 0 0 0 0 0 0 0 0 0 0.25 0"/>
<feBlend mode="normal" in2="BackgroundImageFix" result="effect1_dropShadow_149_225"/>
<feBlend mode="normal" in="SourceGraphic" in2="effect1_dropShadow_149_225" result="shape"/>
</filter>
</defs>
</svg>
