<svg width="258" height="183" viewBox="0 0 258 183" fill="none" xmlns="http://www.w3.org/2000/svg">
<path d="M50.185 61.0694C55.3512 50.0934 70.2302 48.3246 77.8257 57.7835V57.7835C81.243 62.0392 86.5527 64.3172 91.9915 63.861V63.861C104.08 62.8469 113.051 74.8481 108.658 86.1554V86.1554C106.681 91.2428 107.363 96.9801 110.477 101.462V101.462C117.4 111.424 111.492 125.194 99.5026 127.043V127.043C94.1084 127.874 89.4808 131.334 87.1565 136.272V136.272C81.9903 147.248 67.1113 149.017 59.5158 139.558V139.558C56.0985 135.302 50.7888 133.024 45.35 133.48V133.48C33.2614 134.494 24.2901 122.493 28.684 111.186V111.186C30.6609 106.099 29.9788 100.361 26.8643 95.8791V95.8791C19.9418 85.9171 25.8495 72.1471 37.8389 70.2987V70.2987C43.2331 69.4671 47.8607 66.0077 50.185 61.0694V61.0694Z" fill="#FFFFFE"/>
<path d="M150.23 22.9031C154.146 21.9083 158.275 23.3673 160.697 26.6009L172.617 42.5181C173.176 43.2643 173.836 43.9286 174.579 44.4919L190.424 56.5075C193.643 58.9485 195.077 63.0867 194.059 66.9962L189.047 86.2399C188.812 87.142 188.704 88.0726 188.727 89.0045L189.212 108.884C189.31 112.923 186.969 116.624 183.278 118.266L165.107 126.345C164.255 126.724 163.461 127.22 162.746 127.819L147.506 140.593C144.41 143.188 140.056 143.665 136.472 141.803L118.826 132.634C117.998 132.204 117.115 131.892 116.202 131.707L96.7122 127.756C92.7528 126.953 89.6652 123.847 88.8864 119.883L85.053 100.37C84.8733 99.4555 84.5665 98.5704 84.1417 97.7406L75.079 80.04C73.2379 76.444 73.7413 72.0934 76.3551 69.0129L89.2207 53.8497C89.8238 53.1389 90.3246 52.3472 90.7084 51.4977L98.8969 33.3761C100.56 29.6945 104.276 27.3756 108.314 27.4984L128.19 28.1031C129.122 28.1314 130.053 28.0294 130.957 27.7998L150.23 22.9031Z" fill="#FFFFFE"/>
<path fill-rule="evenodd" clip-rule="evenodd" d="M19.7393 114C16.9779 114 14.7094 116.249 15.0305 118.992C19.2193 154.769 68.0802 183 127.739 183C187.399 183 236.259 154.769 240.448 118.992C240.769 116.249 238.501 114 235.739 114H19.7393Z" fill="#EEBBC3"/>
<path d="M71.8629 77.3092C70.9848 70.9738 77.6318 66.2936 83.3004 69.2562V69.2562C86.7065 71.0364 90.9003 70.0952 93.2191 67.0301V67.0301C97.078 61.9293 105.088 63.3201 107.001 69.4233V69.4233C108.151 73.0906 111.782 75.3905 115.589 74.8628V74.8628C121.924 73.9846 126.604 80.6317 123.642 86.3002V86.3002C121.861 89.7064 122.803 93.9002 125.868 96.2189V96.2189C130.968 100.078 129.578 108.087 123.475 110.001V110.001C119.807 111.151 117.507 114.782 118.035 118.588V118.588C118.913 124.924 112.266 129.604 106.598 126.641V126.641C103.191 124.861 98.9976 125.803 96.6789 128.868V128.868C92.82 133.968 84.8104 132.578 82.897 126.474V126.474C81.7473 122.807 78.1163 120.507 74.3094 121.035V121.035C67.9739 121.913 63.2937 115.266 66.2563 109.597V109.597C68.0365 106.191 67.0953 101.997 64.0303 99.6787V99.6787C58.9295 95.8198 60.3203 87.8103 66.4234 85.8969V85.8969C70.0907 84.7471 72.3906 81.1161 71.8629 77.3092V77.3092Z" fill="#FFFFFE"/>
<path d="M185.931 79.8843C189.461 69.954 201.922 66.65 209.909 73.5261V73.5261C212.524 75.7771 215.858 77.0669 219.307 77.1616V77.1616C229.842 77.4511 236.835 88.2809 232.764 98.0021V98.0021C231.431 101.184 231.235 104.754 232.21 108.063V108.063C235.191 118.172 227.052 128.17 216.548 127.301V127.301C213.11 127.017 209.654 127.934 206.809 129.884V129.884C198.115 135.842 186.092 131.191 183.672 120.934V120.934C182.88 117.576 180.941 114.572 178.206 112.469V112.469C169.853 106.042 170.561 93.17 179.569 87.6985V87.6985C182.518 85.9074 184.775 83.1351 185.931 79.8843V79.8843Z" fill="#FFFFFE"/>
<path d="M65.8329 107.952L61.4956 99.0732L48.3881 101.213L47.0998 111.011L38.4365 112.425L44.9651 71.0464L55.5411 69.3199L74.7212 106.501L65.8329 107.952ZM51.4079 77.9647L51.1267 78.0106L49.2286 93.6254L58.2295 92.1561L51.4079 77.9647Z" fill="#B8C1EC"/>
<path d="M82.6157 102.704L77.6972 100.428C77.9812 98.3486 78.5974 96.4935 79.5459 94.8626C80.5323 93.2334 81.7733 91.8629 83.2689 90.7512C84.8025 89.6411 86.5709 88.808 88.574 88.2517C90.5771 87.6954 92.7554 87.4703 95.109 87.5765C97.5386 87.6861 99.7068 88.1072 101.614 88.8399C103.56 89.5363 105.19 90.5037 106.504 91.7422C107.819 92.9426 108.8 94.3943 109.446 96.0971C110.093 97.762 110.372 99.6004 110.281 101.612L109.428 120.517L101.001 120.137L101.805 102.314C101.858 101.137 101.736 100.048 101.439 99.0453C101.181 98.0067 100.728 97.0923 100.079 96.3023C99.4678 95.5139 98.6592 94.8879 97.6531 94.4241C96.6866 93.924 95.5201 93.6432 94.1535 93.5815C92.2174 93.4942 90.4895 93.8537 88.9696 94.66C87.4497 95.4663 86.338 96.5003 85.6344 97.7619L87.7053 98.6541C89.048 99.2472 89.9506 99.8965 90.4133 100.602C90.876 101.308 91.0765 102.344 91.0149 103.71L90.2957 119.654L81.8683 119.274L82.6157 102.704Z" fill="#B8C1EC"/>
<path d="M103.929 34.5359L122.622 39.4322C125.82 40.2699 128.065 41.8205 129.358 44.0839C130.687 46.357 130.962 48.9823 130.182 51.9598C129.797 53.4302 129.267 54.6271 128.593 55.5505C127.956 56.4834 127.22 57.1941 126.385 57.6825C125.587 58.1804 124.703 58.4793 123.734 58.5791C122.812 58.6517 121.849 58.5764 120.847 58.3531L120.761 58.684C121.68 58.9247 122.592 59.3405 123.498 59.9313C124.441 60.5317 125.238 61.3103 125.891 62.267C126.554 63.1869 127.011 64.2888 127.264 65.5728C127.554 66.8664 127.482 68.3403 127.049 69.9945C126.654 71.5017 126.021 72.8679 125.15 74.0932C124.326 75.2914 123.342 76.2712 122.2 77.0326C121.058 77.794 119.803 78.3099 118.436 78.5803C117.079 78.814 115.683 78.743 114.249 78.3675L93.8478 73.0234L103.929 34.5359ZM104.078 68.1609L113.727 70.6885C114.83 70.9774 115.771 70.9096 116.55 70.4851C117.375 70.0335 117.932 69.2563 118.221 68.1536L118.712 66.2788C119.001 65.176 118.892 64.2439 118.384 63.4824C117.923 62.6938 117.141 62.155 116.038 61.8662L106.389 59.3386L104.078 68.1609ZM108.18 52.5012L116.506 54.6822C117.609 54.9711 118.554 54.8849 119.343 54.4237C120.132 53.9625 120.67 53.1804 120.959 52.0777L121.392 50.4235C121.681 49.3207 121.595 48.375 121.134 47.5864C120.673 46.7977 119.891 46.259 118.788 45.9701L110.462 43.7892L108.18 52.5012Z" fill="#B8C1EC"/>
<path d="M144.208 110.393C140.253 111.337 136.94 111.288 134.269 110.246C131.589 109.167 129.922 107.26 129.269 104.525C129.084 103.749 128.985 103.011 128.974 102.31C128.992 101.564 129.105 100.814 129.316 100.06C129.527 99.3064 129.826 98.5123 130.212 97.6777C130.636 96.8342 131.162 95.9273 131.789 94.9569C132.24 94.2243 132.629 93.5648 132.958 92.9784C133.287 92.392 133.527 91.8461 133.68 91.3408C133.861 90.7897 133.968 90.2563 134.001 89.7405C134.034 89.2247 133.976 88.6526 133.826 88.0243C133.543 86.8416 132.867 85.8897 131.796 85.1687C130.762 84.4388 129.321 84.2946 127.473 84.7359C126.808 84.8948 126.248 85.0871 125.794 85.3127L125.916 85.5767L126.47 85.4443C127.69 85.153 128.795 85.2798 129.784 85.8249C130.811 86.3611 131.492 87.3314 131.828 88.7359C132.198 90.2883 131.967 91.6914 131.133 92.9453C130.337 94.1904 129.107 95.0115 127.444 95.4087C125.78 95.8059 124.266 95.601 122.902 94.794C121.537 93.9869 120.629 92.6409 120.179 90.7559C119.605 88.3534 120.011 86.2056 121.395 84.3123C122.816 82.4102 125.042 81.0972 128.072 80.3735C131.214 79.6232 133.881 79.7481 136.073 80.7483C138.266 81.7484 139.679 83.579 140.315 86.2402C140.624 87.5338 140.707 88.8619 140.563 90.2245C140.42 91.5871 139.887 93.1207 138.966 94.8253C138.045 96.5299 137.455 97.8233 137.197 98.7054C136.976 99.5786 136.94 100.329 137.09 100.958L137.21 101.457C137.465 102.529 138.051 103.346 138.967 103.909C139.911 104.425 141.159 104.499 142.711 104.128C144.264 103.757 145.392 102.999 146.095 101.855C146.826 100.664 147.024 99.3667 146.689 97.9622L141.87 77.7817L150.075 75.8222L154.881 95.9473C155.305 97.7214 155.352 99.3901 155.022 100.954C154.72 102.471 154.097 103.87 153.153 105.151C152.199 106.394 150.953 107.473 149.413 108.388C147.902 109.256 146.166 109.925 144.208 110.393ZM126.636 92.0268C127.301 91.868 127.789 91.5367 128.098 91.033C128.445 90.5205 128.529 89.8947 128.353 89.1555C128.176 88.4163 127.818 87.8963 127.277 87.5957C126.774 87.2862 126.189 87.2109 125.524 87.3698C124.858 87.5287 124.353 87.8644 124.006 88.3769C123.697 88.8805 123.63 89.5019 123.807 90.2412C123.983 90.9804 124.323 91.5047 124.827 91.8142C125.368 92.1148 125.971 92.1857 126.636 92.0268Z" fill="#B8C1EC"/>
<path d="M173.928 86.9883C171.304 87.615 168.841 87.7734 166.541 87.4634C164.231 87.1164 162.142 86.3063 160.276 85.0331C158.4 83.7229 156.764 81.9452 155.369 79.7C153.964 77.4178 152.869 74.632 152.084 71.3425C151.307 68.09 151.025 65.1099 151.238 62.4024C151.442 59.6579 152.08 57.2591 153.153 55.2058C154.216 53.1156 155.695 51.3754 157.59 49.9852C159.485 48.5951 161.745 47.5866 164.369 46.9599C167.954 46.1038 171.088 46.1368 173.769 47.0592C176.442 47.9446 178.856 49.7904 181.01 52.5966L174.648 58.1011C173.742 56.5984 172.62 55.4989 171.282 54.8027C169.972 54.0608 168.263 53.9414 166.156 54.4445C163.68 55.0359 161.878 56.3256 160.751 58.3138C159.652 60.2562 159.469 62.7612 160.202 65.829L161.685 72.0384C162.417 75.1061 163.717 77.2766 165.584 78.5498C167.479 79.7772 169.664 80.0952 172.141 79.5038C174.211 79.0095 175.723 78.0623 176.678 76.6622C177.661 75.2163 178.258 73.6281 178.47 71.8976L186.298 74.2476C185.563 77.5487 184.207 80.2948 182.229 82.486C180.281 84.6314 177.513 86.1322 173.928 86.9883Z" fill="#B8C1EC"/>
<path d="M188.336 92.9394C188.882 90.9614 189.743 89.2676 190.921 87.858C192.098 86.4485 193.521 85.3629 195.19 84.6014C196.906 83.8134 198.82 83.376 200.933 83.2891C203.083 83.2123 205.367 83.5075 207.785 84.1747C210.202 84.8419 212.296 85.7548 214.065 86.9134C215.872 88.082 217.291 89.4394 218.322 90.9857C219.401 92.5054 220.084 94.1722 220.372 95.9861C220.66 97.8001 220.531 99.6961 219.985 101.674L215.026 119.641L206.894 117.397L211.701 99.9792C212.358 97.5983 212.186 95.5797 211.184 93.9236C210.193 92.2308 208.489 91.0508 206.071 90.3836C203.653 89.7164 201.585 89.8551 199.866 90.7997C198.156 91.7077 196.973 93.3522 196.316 95.7332L194.982 100.568L195.256 100.644C196.271 99.1109 197.594 97.9584 199.226 97.1868C200.858 96.4152 202.572 96.2771 204.367 96.7725C206.125 97.2577 207.43 98.1699 208.283 99.5089C209.135 100.848 209.309 102.433 208.803 104.265C208.298 106.096 207.336 107.368 205.917 108.08C204.499 108.793 202.91 108.906 201.152 108.421C199.76 108.037 198.681 107.305 197.914 106.226C197.148 105.148 196.813 103.932 196.91 102.579L196.816 102.494C195.667 103.083 194.785 103.924 194.168 105.015C193.588 106.117 193.106 107.363 192.722 108.755L191.509 113.151L183.377 110.907L188.336 92.9394ZM202.037 104.999C202.697 105.181 203.288 105.108 203.813 104.78C204.337 104.451 204.7 103.921 204.902 103.188C205.105 102.456 205.065 101.814 204.783 101.263C204.502 100.712 204.031 100.346 203.372 100.164C202.712 99.982 202.121 100.055 201.596 100.384C201.072 100.712 200.709 101.242 200.507 101.975C200.304 102.708 200.344 103.349 200.626 103.9C200.907 104.451 201.378 104.817 202.037 104.999Z" fill="#B8C1EC"/>
<path fill-rule="evenodd" clip-rule="evenodd" d="M78.0426 152.794C62.617 147.207 49.224 142.356 33.2877 123.559C32.2163 122.295 30.3232 122.14 29.0594 123.211C27.7956 124.283 27.6397 126.176 28.7112 127.439C45.7283 147.511 60.5562 152.866 76.1475 158.497L76.1479 158.497L76.1488 158.498C77.7189 159.065 79.2968 159.635 80.8853 160.222C80.9678 160.253 81.0256 160.327 81.0437 160.413V160.413C81.654 163.312 83.0191 165.589 84.8349 167.391C84.8584 167.415 84.8824 167.439 84.9068 167.462C86.599 169.119 88.6742 170.371 90.8909 171.335C95.4759 173.328 100.982 174.233 105.689 174.976C106.78 175.148 107.804 174.404 107.976 173.313C108.149 172.222 107.404 171.197 106.313 171.025C101.52 170.268 96.5258 169.423 92.4858 167.666C90.9836 167.013 89.6597 166.255 88.5497 165.357C88.2711 165.131 88.2171 164.733 88.452 164.462V164.462C88.8894 163.958 89.4561 163.448 90.1128 162.886C90.352 162.681 90.6751 162.601 90.9797 162.681C92.0705 162.97 93.1996 163.393 94.408 163.905C95.115 164.204 95.8549 164.539 96.628 164.888C99.6392 166.25 103.154 167.839 107.189 168.476C108.28 168.648 109.304 167.904 109.476 166.813C109.649 165.722 108.904 164.697 107.813 164.525C104.364 163.981 101.479 162.681 98.5223 161.349C97.6817 160.97 96.8353 160.589 95.9686 160.222C95.6953 160.106 95.4204 159.992 95.1437 159.881C94.5099 159.626 94.2927 158.832 94.5798 158.212C94.6476 158.066 94.7083 157.915 94.7602 157.76V157.76C94.9463 157.205 95.4752 156.759 96.0441 156.9C96.2995 156.963 96.5567 157.032 96.8159 157.108C98.5274 157.607 100.209 158.325 102.031 159.102C102.453 159.282 102.881 159.465 103.32 159.649C105.585 160.601 108.057 161.56 110.689 161.976C111.78 162.148 112.804 161.404 112.976 160.312C113.149 159.221 112.404 158.197 111.313 158.025C109.195 157.691 107.104 156.9 104.869 155.961C104.482 155.799 104.087 155.63 103.687 155.459C101.854 154.676 99.9003 153.841 97.9358 153.268C95.6864 152.612 93.2776 152.249 90.7233 152.649C90.6996 152.652 90.676 152.656 90.6525 152.66C90.4571 152.692 90.2608 152.728 90.0637 152.769C88.3637 153.121 86.6702 153.808 84.9691 154.894C84.695 155.069 84.3548 155.111 84.0503 154.997C82.0084 154.23 80.009 153.506 78.0427 152.794L78.0426 152.794Z" fill="#FFFFFE"/>
</svg>
