<svg width="232" height="171" viewBox="0 0 232 171" fill="none" xmlns="http://www.w3.org/2000/svg">
<path d="M222.202 24L159.739 134.591" stroke="#EEBBC3" stroke-width="18" stroke-linecap="round"/>
<path d="M188.984 15.8147L149.838 136.643" stroke="#EEBBC3" stroke-width="18" stroke-linecap="round"/>
<path fill-rule="evenodd" clip-rule="evenodd" d="M4.73926 101C1.97784 101 -0.290666 103.249 0.0304434 105.992C4.21921 141.769 53.0801 170 112.739 170C172.398 170 221.259 141.769 225.448 105.992C225.769 103.249 223.501 101 220.739 101H4.73926Z" fill="#EEBBC3"/>
<path d="M102.807 142.501C102.981 139.324 107.119 138.227 108.845 140.9V140.9C109.617 142.095 111.071 142.657 112.446 142.293V142.293C115.522 141.477 117.844 145.074 115.835 147.541V147.541C114.937 148.644 114.851 150.201 115.623 151.396V151.396C117.349 154.069 114.646 157.389 111.679 156.241V156.241C110.352 155.728 108.845 156.127 107.947 157.231V157.231C105.938 159.698 101.945 158.153 102.12 154.977V154.977C102.198 153.556 101.353 152.246 100.026 151.733V151.733C97.0585 150.585 97.2936 146.311 100.369 145.495V145.495C101.744 145.13 102.729 143.922 102.807 142.501V142.501Z" fill="#FFFFFE"/>
<path d="M88.6767 119.543C89.1144 116.825 92.84 116.382 93.9027 118.921V118.921C94.4728 120.284 96.021 120.948 97.4011 120.422V120.422C99.9739 119.442 102.22 122.447 100.552 124.637V124.637C99.6574 125.812 99.8563 127.485 101.002 128.418V128.418C103.137 130.156 101.657 133.604 98.9266 133.254V133.254C97.4617 133.067 96.1124 134.075 95.8776 135.533V135.533C95.4399 138.251 91.7143 138.694 90.6516 136.155V136.155C90.0815 134.792 88.5332 134.128 87.1531 134.654V134.654C84.5804 135.634 82.3341 132.629 84.0021 130.439V130.439C84.8969 129.264 84.698 127.591 83.5527 126.658V126.658C81.4177 124.92 82.8969 121.472 85.6277 121.822V121.822C87.0925 122.009 88.4419 121.001 88.6767 119.543V119.543Z" fill="#FFFFFE"/>
<path d="M134.225 114.56C136.252 111.513 141.006 113.193 140.67 116.837V116.837C140.468 119.025 142.294 120.862 144.483 120.674V120.674C148.13 120.359 149.781 125.123 146.721 127.132V127.132C144.885 128.338 144.587 130.912 146.099 132.505V132.505C148.619 135.16 145.924 139.421 142.445 138.282V138.282C140.358 137.598 138.16 138.97 137.857 141.146V141.146C137.352 144.771 132.34 145.321 131.062 141.891V141.891C130.295 139.832 127.852 138.969 125.962 140.089V140.089C122.813 141.955 119.258 138.379 121.143 135.241V135.241C122.274 133.358 121.426 130.91 119.372 130.13V130.13C115.95 128.832 116.529 123.823 120.158 123.34V123.34C122.335 123.05 123.72 120.861 123.049 118.769V118.769C121.931 115.284 126.208 112.614 128.848 115.15V115.15C130.432 116.672 133.008 116.389 134.225 114.56V114.56Z" fill="#FFFFFE"/>
<path d="M52.8677 98.7354L47.2081 90.6348L34.5899 94.7781L34.834 104.657L26.4941 107.395L26.5377 65.5052L36.7188 62.1621L61.4242 95.9258L52.8677 98.7354ZM33.9739 71.3426L33.7032 71.4315L34.2456 87.1519L42.9104 84.3067L33.9739 71.3426Z" fill="#B8C1EC"/>
<path d="M54.3548 61.7039L49.4364 59.4279C49.7204 57.3486 50.3366 55.4935 51.285 53.8626C52.2714 52.2334 53.5125 50.8629 55.0081 49.7512C56.5417 48.6411 58.31 47.808 60.3131 47.2517C62.3162 46.6954 64.4946 46.4703 66.8482 46.5765C69.2777 46.6861 71.4459 47.1072 73.3528 47.8399C75.2994 48.5363 76.9295 49.5037 78.243 50.7422C79.5583 51.9426 80.5388 53.3943 81.1848 55.0971C81.8324 56.762 82.1109 58.6004 82.0201 60.6124L81.1674 79.5172L72.7399 79.137L73.5439 61.3141C73.597 60.1373 73.4749 59.0477 73.1778 58.0453C72.9203 57.0067 72.4671 56.0923 71.818 55.3023C71.2069 54.5139 70.3983 53.8879 69.3922 53.4241C68.4257 52.924 67.2592 52.6432 65.8926 52.5815C63.9566 52.4942 62.2286 52.8537 60.7087 53.66C59.1889 54.4663 58.0771 55.5003 57.3736 56.7619L59.4445 57.6541C60.7871 58.2472 61.6898 58.8965 62.1524 59.6021C62.6151 60.3077 62.8156 61.3438 62.754 62.7104L62.0348 78.6542L53.6074 78.274L54.3548 61.7039Z" fill="white"/>
<path d="M96.6683 24.5359L115.361 29.4322C118.559 30.2699 120.804 31.8205 122.097 34.0839C123.426 36.357 123.701 38.9823 122.921 41.9598C122.536 43.4302 122.006 44.6271 121.332 45.5505C120.695 46.4834 119.959 47.1941 119.124 47.6825C118.326 48.1804 117.442 48.4793 116.473 48.5791C115.551 48.6517 114.588 48.5764 113.586 48.3531L113.5 48.684C114.419 48.9247 115.331 49.3405 116.237 49.9313C117.18 50.5317 117.977 51.3103 118.63 52.267C119.293 53.1869 119.75 54.2888 120.003 55.5728C120.293 56.8664 120.221 58.3403 119.788 59.9945C119.393 61.5017 118.76 62.8679 117.889 64.0932C117.065 65.2914 116.081 66.2712 114.939 67.0326C113.797 67.794 112.542 68.3099 111.175 68.5803C109.818 68.814 108.422 68.743 106.988 68.3675L86.5868 63.0234L96.6683 24.5359ZM96.8168 58.1609L106.466 60.6885C107.569 60.9774 108.51 60.9096 109.289 60.4851C110.114 60.0335 110.671 59.2563 110.96 58.1536L111.451 56.2788C111.74 55.176 111.631 54.2439 111.123 53.4824C110.662 52.6938 109.88 52.155 108.777 51.8662L99.1277 49.3386L96.8168 58.1609ZM100.919 42.5012L109.245 44.6822C110.348 44.9711 111.293 44.8849 112.082 44.4237C112.871 43.9625 113.409 43.1804 113.698 42.0777L114.131 40.4235C114.42 39.3207 114.334 38.375 113.873 37.5864C113.412 36.7977 112.63 36.259 111.527 35.9701L103.201 33.7892L100.919 42.5012Z" fill="#B8C1EC"/>
<path d="M124.947 103.393C120.992 104.337 117.679 104.288 115.008 103.246C112.328 102.167 110.661 100.26 110.008 97.5251C109.823 96.7489 109.725 96.0105 109.713 95.3099C109.731 94.5635 109.844 93.8136 110.055 93.06C110.266 92.3064 110.565 91.5123 110.951 90.6777C111.375 89.8342 111.901 88.9273 112.529 87.9569C112.979 87.2243 113.368 86.5648 113.697 85.9784C114.026 85.392 114.266 84.8461 114.419 84.3408C114.6 83.7897 114.707 83.2563 114.74 82.7405C114.773 82.2247 114.715 81.6526 114.565 81.0243C114.282 79.8416 113.606 78.8897 112.535 78.1687C111.501 77.4388 110.06 77.2946 108.212 77.7359C107.547 77.8948 106.987 78.0871 106.533 78.3127L106.655 78.5767L107.209 78.4443C108.429 78.153 109.534 78.2798 110.523 78.8249C111.55 79.3611 112.231 80.3314 112.567 81.7359C112.937 83.2883 112.706 84.6914 111.872 85.9453C111.076 87.1904 109.846 88.0115 108.183 88.4087C106.519 88.8059 105.005 88.601 103.641 87.794C102.276 86.9869 101.368 85.6409 100.918 83.7559C100.344 81.3534 100.75 79.2056 102.134 77.3123C103.555 75.4102 105.781 74.0972 108.811 73.3735C111.953 72.6232 114.62 72.7481 116.812 73.7483C119.005 74.7484 120.418 76.579 121.054 79.2402C121.363 80.5338 121.446 81.8619 121.302 83.2245C121.159 84.5871 120.626 86.1207 119.705 87.8253C118.784 89.5299 118.194 90.8233 117.936 91.7054C117.715 92.5786 117.679 93.3294 117.829 93.9578L117.949 94.4567C118.205 95.5286 118.79 96.3459 119.706 96.9085C120.65 97.4254 121.898 97.4985 123.45 97.1278C125.003 96.7571 126.131 95.9994 126.834 94.8547C127.565 93.6642 127.764 92.3667 127.428 90.9622L122.609 70.7817L130.814 68.8222L135.62 88.9473C136.044 90.7214 136.091 92.3901 135.761 93.9535C135.459 95.4711 134.836 96.8701 133.892 98.1505C132.938 99.3939 131.692 100.473 130.152 101.388C128.641 102.256 126.905 102.925 124.947 103.393ZM107.375 85.0268C108.04 84.868 108.528 84.5367 108.837 84.033C109.184 83.5205 109.269 82.8947 109.092 82.1555C108.915 81.4163 108.557 80.8963 108.016 80.5957C107.513 80.2862 106.928 80.2109 106.263 80.3698C105.598 80.5287 105.092 80.8644 104.745 81.3769C104.436 81.8805 104.369 82.5019 104.546 83.2412C104.722 83.9804 105.062 84.5047 105.566 84.8142C106.107 85.1148 106.71 85.1857 107.375 85.0268Z" fill="white"/>
<path d="M156.667 76.9883C154.043 77.615 151.58 77.7734 149.28 77.4634C146.97 77.1164 144.881 76.3063 143.015 75.0331C141.139 73.7229 139.503 71.9452 138.108 69.7C136.703 67.4178 135.608 64.632 134.823 61.3425C134.046 58.09 133.764 55.1099 133.977 52.4024C134.181 49.6579 134.819 47.2591 135.892 45.2058C136.955 43.1156 138.434 41.3754 140.329 39.9852C142.224 38.5951 144.484 37.5866 147.108 36.9599C150.693 36.1038 153.827 36.1368 156.508 37.0592C159.181 37.9446 161.595 39.7904 163.749 42.5966L157.387 48.1011C156.481 46.5984 155.359 45.4989 154.021 44.8027C152.711 44.0608 151.002 43.9414 148.895 44.4445C146.419 45.0359 144.617 46.3256 143.49 48.3138C142.391 50.2562 142.208 52.7612 142.941 55.829L144.424 62.0384C145.156 65.1061 146.456 67.2766 148.323 68.5498C150.218 69.7772 152.403 70.0952 154.88 69.5038C156.95 69.0095 158.462 68.0623 159.417 66.6622C160.4 65.2163 160.997 63.6281 161.209 61.8976L169.037 64.2476C168.302 67.5487 166.946 70.2948 164.968 72.486C163.02 74.6314 160.252 76.1322 156.667 76.9883Z" fill="#B8C1EC"/>
<path d="M170.075 79.9394C170.621 77.9614 171.482 76.2676 172.66 74.858C173.837 73.4485 175.26 72.3629 176.929 71.6014C178.645 70.8134 180.559 70.376 182.672 70.2891C184.822 70.2123 187.106 70.5075 189.524 71.1747C191.941 71.8419 194.035 72.7548 195.804 73.9134C197.61 75.082 199.029 76.4394 200.061 77.9857C201.14 79.5054 201.823 81.1722 202.111 82.9861C202.399 84.8001 202.27 86.6961 201.724 88.6741L196.765 106.641L188.633 104.397L193.44 86.9792C194.097 84.5983 193.925 82.5797 192.923 80.9236C191.932 79.2308 190.228 78.0508 187.81 77.3836C185.392 76.7164 183.324 76.8551 181.605 77.7997C179.895 78.7077 178.712 80.3522 178.055 82.7332L176.721 87.5684L176.995 87.6442C178.01 86.1109 179.333 84.9584 180.965 84.1868C182.597 83.4152 184.311 83.2771 186.106 83.7725C187.864 84.2577 189.169 85.1699 190.022 86.5089C190.874 87.848 191.048 89.4333 190.542 91.2648C190.037 93.0963 189.075 94.3682 187.656 95.0805C186.238 95.7927 184.649 95.9062 182.891 95.421C181.499 95.0368 180.42 94.3053 179.653 93.2265C178.886 92.1476 178.552 90.9318 178.649 89.579L178.555 89.4937C177.406 90.0835 176.524 90.924 175.907 92.0153C175.327 93.1167 174.845 94.3634 174.461 95.7554L173.248 100.151L165.116 97.9067L170.075 79.9394ZM183.776 91.9992C184.436 92.1811 185.027 92.108 185.552 91.7796C186.076 91.4512 186.439 90.9207 186.641 90.1881C186.843 89.4555 186.804 88.8138 186.522 88.2631C186.241 87.7123 185.77 87.3459 185.111 87.1639C184.451 86.982 183.86 87.0552 183.335 87.3835C182.811 87.7119 182.448 88.2424 182.246 88.975C182.043 89.7076 182.083 90.3493 182.365 90.9001C182.646 91.4508 183.117 91.8172 183.776 91.9992Z" fill="white"/>
</svg>
